<svg width="409" height="409" viewBox="0 0 409 409" fill="none" xmlns="http://www.w3.org/2000/svg">
<path d="M0 204.5C0 91.5578 91.5578 0 204.5 0V0C317.442 0 409 91.5578 409 204.5V204.5C409 317.442 317.442 409 204.5 409V409C91.5578 409 0 317.442 0 204.5V204.5Z" fill="#034852"/>
<path d="M297.051 80.8201C302.065 70.9783 314.109 67.0652 323.951 72.0798L337.277 78.87C347.119 83.8846 351.032 95.9282 346.017 105.77L226.047 341.226C221.032 351.068 208.988 354.981 199.147 349.966L185.82 343.176C175.978 338.161 172.065 326.118 177.08 316.276L297.051 80.8201Z" fill="white"/>
<g filter="url(#filter0_d)">
<path d="M62.0097 113.6C54.8246 99.6997 60.3352 82.7385 74.3178 75.7158V75.7158C88.3005 68.6931 105.46 74.2681 112.645 88.1681L227.972 311.275C235.157 325.175 229.646 342.137 215.663 349.159V349.159C201.681 356.182 184.521 350.607 177.336 336.707L62.0097 113.6Z" fill="#087CBD"/>
</g>
<g filter="url(#filter1_d)">
<path d="M231 328C231 342.359 218.912 354 204 354C189.088 354 177 342.359 177 328C177 313.641 189.088 302 204 302C218.912 302 231 313.641 231 328Z" fill="#0261B8"/>
</g>
<path d="M293 327.5C293 336.06 286.06 343 277.5 343C268.94 343 262 336.06 262 327.5C262 318.94 268.94 312 277.5 312C286.06 312 293 318.94 293 327.5Z" fill="white"/>
<defs>
<filter id="filter0_d" x="54.8567" y="72.6799" width="180.268" height="287.515" filterUnits="userSpaceOnUse" color-interpolation-filters="sRGB">
<feFlood flood-opacity="0" result="BackgroundImageFix"/>
<feColorMatrix in="SourceAlpha" type="matrix" values="0 0 0 0 0 0 0 0 0 0 0 0 0 0 0 0 0 0 127 0"/>
<feOffset dy="4"/>
<feGaussianBlur stdDeviation="2"/>
<feColorMatrix type="matrix" values="0 0 0 0 0 0 0 0 0 0 0 0 0 0 0 0 0 0 0.25 0"/>
<feBlend mode="normal" in2="BackgroundImageFix" result="effect1_dropShadow"/>
<feBlend mode="normal" in="SourceGraphic" in2="effect1_dropShadow" result="shape"/>
</filter>
<filter id="filter1_d" x="173" y="302" width="62" height="60" filterUnits="userSpaceOnUse" color-interpolation-filters="sRGB">
<feFlood flood-opacity="0" result="BackgroundImageFix"/>
<feColorMatrix in="SourceAlpha" type="matrix" values="0 0 0 0 0 0 0 0 0 0 0 0 0 0 0 0 0 0 127 0"/>
<feOffset dy="4"/>
<feGaussianBlur stdDeviation="2"/>
<feColorMatrix type="matrix" values="0 0 0 0 0 0 0 0 0 0 0 0 0 0 0 0 0 0 0.25 0"/>
<feBlend mode="normal" in2="BackgroundImageFix" result="effect1_dropShadow"/>
<feBlend mode="normal" in="SourceGraphic" in2="effect1_dropShadow" result="shape"/>
</filter>
</defs>
</svg>
